<?xml version="1.0" standalone="no"?>
<!DOCTYPE svg PUBLIC "-//W3C//DTD SVG 20010904//EN"
 "http://www.w3.org/TR/2001/REC-SVG-20010904/DTD/svg10.dtd">
<svg version="1.0" xmlns="http://www.w3.org/2000/svg"
 width="1500.000000pt" height="1500.000000pt" viewBox="0 0 1500.000000 1500.000000"
 preserveAspectRatio="xMidYMid meet">
<metadata>
Created by potrace 1.16, written by Peter Selinger 2001-2019
</metadata>
<g transform="translate(0.000000,1500.000000) scale(0.100000,-0.100000)"
fill="#000000" stroke="none">
<path d="M0 7500 l0 -7500 7500 0 7500 0 0 7500 0 7500 -7500 0 -7500 0 0
-7500z m12040 4674 c0 -9 -9 -31 -19 -48 -10 -17 -22 -47 -26 -66 -10 -48 -57
-149 -93 -202 -88 -129 -117 -233 -109 -395 6 -130 24 -234 37 -212 15 24 23
111 11 118 -8 5 -7 37 4 117 18 128 36 189 79 264 43 75 72 146 81 198 10 62
29 54 21 -10 -4 -36 -27 -95 -71 -183 -66 -134 -79 -172 -89 -265 -8 -68 6
-48 24 35 19 91 118 283 133 258 3 -5 -12 -38 -33 -74 -46 -75 -83 -177 -78
-216 2 -23 14 -6 66 97 34 69 70 154 79 190 20 79 20 231 0 313 -8 31 -11 60
-6 62 12 8 16 -4 35 -95 19 -95 15 -205 -11 -305 -15 -60 -83 -205 -152 -325
-31 -54 -42 -91 -70 -229 -31 -158 -34 -197 -11 -158 5 10 29 46 53 80 24 34
64 91 89 127 94 134 148 317 148 504 1 95 3 107 14 91 16 -22 18 -153 4 -225
-7 -38 -5 -48 10 -62 23 -22 48 -106 61 -208 8 -70 7 -86 -10 -136 -42 -118
-138 -234 -266 -321 -33 -22 -79 -60 -102 -84 -24 -23 -45 -40 -48 -37 -12 12
65 89 148 147 133 94 241 239 255 343 9 70 -46 321 -61 278 -3 -8 -15 -46 -28
-85 -32 -101 -77 -185 -163 -305 -73 -102 -165 -265 -155 -275 3 -2 26 19 52
49 25 30 81 82 124 116 93 74 110 94 155 184 43 85 59 73 18 -13 -42 -87 -71
-122 -170 -201 -116 -93 -188 -188 -204 -269 l-6 -34 42 39 c24 22 95 74 158
116 110 73 152 115 206 204 7 11 15 16 19 12 13 -12 -40 -91 -98 -145 -30 -29
-88 -73 -128 -99 -41 -26 -94 -63 -118 -82 -59 -48 -117 -140 -131 -209 -7
-30 -21 -80 -31 -111 -10 -30 -18 -57 -16 -58 1 -2 29 31 62 72 33 41 117 129
187 195 234 220 327 385 328 577 0 28 5 52 10 52 16 0 12 -151 -6 -211 -41
-137 -121 -247 -326 -448 -137 -135 -233 -252 -281 -346 -8 -16 -28 -77 -45
-135 -17 -58 -34 -114 -38 -125 -4 -11 23 12 62 51 62 63 149 135 316 263 130
98 229 229 253 335 6 28 2 25 -59 -31 -42 -40 -100 -80 -167 -114 -100 -52
-162 -103 -248 -202 -56 -65 -46 -33 12 41 69 86 108 117 221 176 107 56 173
104 205 152 13 19 33 39 43 45 14 7 18 21 18 60 l0 51 -35 -46 c-72 -95 -218
-236 -204 -198 2 6 44 52 92 103 49 51 102 117 119 146 41 72 58 70 58 -8 0
-86 -26 -192 -68 -279 -45 -92 -151 -203 -297 -310 -115 -84 -255 -207 -287
-253 -26 -36 -27 -37 68 35 27 21 105 65 174 100 84 42 142 78 178 112 29 27
55 46 59 42 4 -3 -18 -30 -48 -59 -40 -38 -90 -70 -192 -121 -143 -71 -266
-163 -314 -235 -42 -62 -24 -56 50 15 78 77 131 116 217 159 115 57 223 130
273 185 61 66 91 122 114 214 9 36 20 66 24 66 13 0 11 -17 -6 -83 -43 -166
-147 -274 -375 -392 -109 -56 -178 -105 -235 -167 -96 -105 -115 -126 -115
-132 0 -3 26 7 58 23 31 17 103 41 158 55 159 39 215 69 327 175 31 30 59 52
62 49 2 -2 -26 -36 -63 -74 -82 -86 -169 -136 -282 -163 -165 -40 -258 -83
-288 -131 -21 -34 -7 -35 44 -2 46 31 144 67 262 97 81 20 165 58 204 90 17
15 37 23 47 20 29 -9 104 105 144 222 20 56 40 110 46 120 21 36 12 -18 -20
-120 -21 -68 -27 -102 -21 -110 14 -16 -7 -107 -41 -180 -57 -124 -148 -230
-261 -302 -68 -43 -235 -112 -366 -150 -145 -42 -250 -102 -250 -143 0 -10 7
-9 28 6 84 58 248 132 292 132 37 0 20 -18 -27 -29 -105 -26 -290 -137 -344
-204 -33 -43 -18 -41 47 8 53 40 188 115 207 115 21 0 2 -19 -35 -36 -74 -33
-181 -109 -246 -175 -70 -70 -109 -126 -51 -73 125 115 278 212 414 264 224
84 347 174 413 298 18 34 37 62 43 62 14 0 12 -7 -23 -74 -64 -121 -169 -202
-373 -286 -208 -87 -319 -156 -455 -282 -39 -38 -75 -68 -78 -68 -4 0 -13 -9
-20 -20 -25 -41 24 -20 173 75 174 110 246 138 355 139 75 1 138 -10 126 -21
-3 -3 -45 -5 -93 -4 -137 3 -200 -21 -398 -148 -60 -39 -131 -78 -157 -87 -28
-9 -48 -22 -48 -30 0 -12 6 -12 38 2 90 38 113 46 118 41 7 -7 -51 -37 -119
-62 -26 -10 -45 -20 -42 -23 7 -7 151 47 177 67 52 40 128 90 164 109 62 31
194 54 194 34 0 -5 -30 -14 -66 -21 -77 -14 -138 -43 -245 -116 -70 -48 -206
-105 -250 -105 -10 0 -44 -44 -88 -114 -39 -63 -71 -117 -71 -121 0 -3 13 3
30 15 76 54 219 109 395 153 284 69 389 133 497 298 48 74 68 94 68 68 0 -21
-71 -129 -121 -184 -93 -101 -216 -158 -472 -219 -197 -47 -333 -112 -442
-209 -49 -45 -32 -49 21 -6 33 27 170 99 188 99 3 0 6 -4 6 -10 0 -5 -37 -27
-82 -50 -46 -22 -94 -50 -108 -61 l-25 -21 25 7 c49 12 177 36 323 59 198 32
261 62 379 182 54 55 88 82 93 75 9 -15 -134 -158 -200 -200 -70 -44 -154 -68
-340 -96 -88 -13 -182 -31 -210 -40 -54 -17 -140 -61 -95 -49 103 29 132 34
183 34 31 0 57 -4 57 -10 0 -5 -21 -10 -47 -10 -27 0 -68 -5 -93 -10 -70 -16
-208 -71 -214 -86 -3 -8 18 -2 52 16 87 44 207 57 366 41 120 -13 127 -13 198
9 40 13 79 23 87 23 14 0 121 124 121 140 0 5 -8 6 -17 2 -61 -26 -147 -55
-163 -55 -31 0 -23 18 11 25 16 4 57 18 91 32 64 26 108 25 108 -3 0 -20 -146
-189 -212 -246 -152 -130 -446 -262 -641 -288 -110 -15 -246 -47 -274 -65 -12
-8 -27 -24 -33 -34 -10 -20 -9 -19 47 1 45 16 89 22 198 25 84 2 162 10 195
19 79 23 194 85 274 149 69 54 95 68 79 41 -16 -26 -105 -96 -176 -138 -122
-71 -191 -90 -357 -97 -144 -7 -153 -10 -73 -31 23 -6 61 -26 84 -46 71 -59
116 -77 199 -80 92 -3 88 -2 70 -14 -8 -5 -32 -10 -54 -10 -26 0 -47 -8 -67
-24 -58 -49 -167 -42 -295 19 -67 32 -194 59 -194 41 0 -3 9 -15 19 -25 11
-11 29 -51 41 -90 20 -67 45 -100 98 -130 35 -19 2 -22 -35 -2 -51 25 -56 33
-83 114 -22 67 -51 107 -77 107 -10 0 -11 -5 -3 -19 5 -11 21 -55 35 -98 36
-114 74 -143 186 -143 60 0 79 -15 34 -26 -41 -10 -132 6 -167 30 -38 25 -59
63 -88 157 -11 37 -26 72 -33 78 -20 16 -76 -39 -117 -114 -69 -123 -152 -197
-260 -231 -30 -9 -73 -30 -94 -46 -45 -31 -73 -35 -102 -13 -19 15 -18 16 9
36 l27 21 -24 29 c-50 59 -57 141 -29 350 9 69 13 134 10 143 -6 16 -16 17
-85 11 l-77 -8 -73 -69 c-138 -130 -363 -259 -552 -315 -126 -37 -274 -39
-363 -4 -72 28 -167 114 -201 182 l-25 50 -40 -59 c-74 -110 -178 -182 -260
-182 -130 0 -200 127 -187 340 19 314 19 339 1 346 -62 24 -212 -221 -320
-524 -52 -145 -73 -172 -132 -172 -23 0 -42 8 -58 25 -23 22 -25 32 -26 122
-1 54 -4 112 -8 128 l-6 30 -32 -46 c-38 -55 -113 -124 -164 -149 -107 -55
-269 -64 -349 -19 -52 29 -76 68 -98 159 l-18 72 -49 -83 c-97 -168 -210 -249
-349 -249 -109 0 -181 32 -230 102 -9 12 -17 20 -20 17 -2 -2 -39 -65 -81
-139 -167 -292 -311 -486 -506 -680 -141 -142 -243 -224 -413 -338 -250 -166
-457 -254 -768 -328 -66 -16 -791 -706 -1010 -962 -165 -193 -268 -367 -268
-454 0 -48 41 -108 103 -150 154 -105 330 -170 912 -338 801 -232 766 -220
773 -270 8 -54 -60 -64 -157 -24 -35 14 -120 38 -190 55 -660 156 -1022 261
-1291 374 -73 31 -142 55 -154 53 l-21 -3 -6 -920 c-6 -920 -11 -1116 -31
-1168 -18 -48 -105 -56 -134 -12 -32 48 -35 310 -32 2630 3 2168 4 2302 20
2327 24 36 81 47 122 24 l29 -17 -7 138 c-20 418 94 1055 282 1573 290 802
732 1455 1229 1817 198 144 365 224 561 268 122 28 219 31 310 10 87 -21 132
-46 185 -105 52 -58 74 -114 86 -225 32 -284 -124 -854 -366 -1340 -89 -177
-130 -237 -171 -249 -43 -12 -108 7 -117 34 -4 14 31 106 108 283 135 307 202
472 252 623 164 491 148 820 -42 873 -52 15 -69 14 -156 -8 -376 -97 -809
-464 -1141 -966 -155 -236 -206 -323 -321 -560 -224 -458 -367 -927 -452
-1481 -25 -165 -27 -202 -27 -469 0 -315 10 -410 59 -580 103 -353 310 -585
590 -660 33 -9 112 -19 176 -22 l117 -6 73 68 c41 38 103 96 139 129 36 34
117 109 180 167 63 58 261 240 440 406 382 353 483 441 527 460 68 28 143 7
143 -41 0 -17 -28 -50 -102 -117 -57 -52 -168 -155 -248 -229 -80 -75 -157
-147 -171 -161 -212 -195 -608 -573 -605 -576 5 -5 215 97 328 159 288 159
566 386 754 618 202 249 452 643 504 794 50 146 152 259 295 328 131 63 226
62 375 -6 11 -4 19 2 27 23 19 51 116 66 157 25 21 -20 21 -83 0 -221 -36
-239 6 -353 130 -353 70 0 117 31 229 151 l89 93 -4 143 c-3 162 0 171 70 180
34 5 44 1 65 -19 21 -21 26 -38 32 -104 9 -109 9 -109 23 -109 6 0 42 40 79
90 119 157 229 224 349 212 63 -6 88 -21 117 -67 25 -40 28 -122 13 -380 -7
-123 -6 -151 7 -183 18 -42 35 -52 72 -43 62 16 180 182 201 283 37 176 166
313 338 359 69 19 229 18 293 -1 136 -40 137 -162 1 -231 -51 -26 -203 -54
-296 -54 -80 0 -119 -20 -129 -67 -27 -134 23 -250 133 -304 40 -19 57 -21
127 -16 138 9 293 73 545 224 l143 85 -28 30 c-26 28 -28 34 -27 113 2 135 47
199 139 197 54 0 85 -23 85 -61 0 -14 -12 -57 -25 -96 -41 -115 -32 -128 64
-101 139 39 178 15 197 -117 8 -60 26 -70 115 -65 66 4 99 16 69 26 -8 3 -64
56 -125 118 -96 98 -116 114 -157 124 -59 15 -64 35 -8 27 59 -8 103 -40 187
-136 55 -63 95 -98 150 -130 40 -24 76 -41 79 -38 3 2 -15 16 -39 30 -44 26
-89 72 -161 162 -53 67 -99 105 -144 120 -39 14 -55 35 -26 35 10 0 37 -9 60
-20 40 -20 78 -57 205 -201 31 -35 71 -72 89 -83 l33 -19 -19 32 c-10 17 -51
65 -92 107 -94 97 -136 180 -135 268 1 63 26 142 42 132 5 -4 3 -25 -5 -53 -8
-25 -14 -65 -14 -88 0 -61 57 -167 129 -242 33 -35 69 -80 80 -100 15 -29 20
-33 21 -17 0 25 -61 128 -103 172 -17 17 -26 32 -20 32 15 0 120 -115 128
-140 6 -18 25 -29 25 -14 0 3 -21 45 -46 92 -25 48 -60 128 -77 177 -26 77
-31 105 -31 190 0 87 4 112 33 195 32 93 61 144 61 108 0 -9 -14 -59 -31 -110
-42 -124 -48 -209 -20 -317 18 -74 76 -206 130 -301 11 -19 23 -52 26 -74 11
-71 27 -23 32 100 4 101 2 129 -15 182 -25 78 -12 91 17 16 17 -45 21 -77 21
-172 0 -136 13 -140 30 -8 16 115 6 165 -70 355 -82 207 -93 249 -94 366 0 84
4 112 26 174 28 76 42 99 51 84 3 -4 -6 -35 -20 -68 -19 -45 -26 -85 -30 -155
-6 -123 8 -184 94 -398 l68 -167 0 -122 c0 -82 3 -116 9 -105 16 27 20 246 6
329 -6 41 -9 77 -6 80 2 3 13 -21 22 -53 12 -40 18 -94 19 -166 0 -60 3 -108
7 -108 3 0 12 23 18 51 20 83 8 253 -28 384 -126 463 -122 443 -122 590 0 111
4 147 21 198 30 89 70 177 81 177 6 0 7 -8 3 -17 -70 -184 -77 -214 -78 -358
l-1 -140 67 -240 c94 -338 109 -437 87 -569 -5 -33 -8 -62 -5 -64 2 -2 13 14
24 35 14 28 21 70 26 144 9 131 -10 244 -71 420 -24 69 -44 141 -43 160 0 32
2 31 20 -21 94 -259 119 -366 119 -514 0 -100 2 -117 14 -107 79 65 154 328
163 571 5 150 3 161 -86 411 -34 97 -43 138 -53 245 -7 80 -8 152 -3 189 l9
60 8 -90 c25 -283 25 -286 89 -475 l62 -183 -6 -161 c-4 -122 -11 -187 -30
-266 -14 -58 -23 -107 -22 -108 13 -14 258 383 264 427 3 20 5 90 6 156 0 133
7 105 -111 441 -82 235 -107 365 -108 549 -1 118 3 152 23 220 24 83 53 149
70 160 6 3 -1 -27 -14 -66 -56 -165 -69 -327 -40 -504 22 -137 51 -232 158
-525 41 -113 60 -220 55 -313 -1 -37 0 -67 3 -67 24 0 27 206 5 290 -18 66
-71 213 -119 330 -36 88 -49 148 -32 152 6 1 15 -18 20 -42 6 -25 23 -72 39
-105 62 -130 126 -346 135 -455 l6 -75 78 136 c42 75 84 155 92 178 8 23 17
97 20 164 9 202 16 267 27 267 8 0 9 -51 5 -167 -7 -181 4 -208 28 -68 8 43
19 83 26 89 8 8 10 3 7 -21 -3 -18 -1 -33 3 -33 10 0 22 38 15 49 -4 5 -1 42
4 82 19 132 -2 244 -75 413 -20 48 -46 177 -37 190 3 6 13 -21 23 -60 9 -38
35 -112 58 -165 46 -109 64 -204 59 -324 -3 -83 2 -103 17 -67 4 9 6 120 5
247 -2 296 -29 457 -105 636 -49 113 -38 135 13 27 78 -165 112 -342 119 -622
l6 -210 29 64 c16 35 32 82 36 105 12 67 7 344 -7 433 -12 74 -11 105 4 90 7
-7 35 -211 44 -325 7 -88 9 -95 19 -70 16 38 15 173 -2 332 -13 120 -18 140
-71 265 -69 165 -96 240 -86 240 13 0 142 -301 161 -375 10 -38 21 -124 25
-190 4 -66 11 -126 15 -134 15 -28 33 130 27 234 -9 134 -26 219 -97 479 -86
315 -94 363 -94 551 0 88 6 189 13 225 23 124 79 270 115 299 22 19 20 9 -13
-68 -75 -169 -106 -355 -91 -542 11 -130 30 -222 87 -419 67 -234 91 -346 104
-476 6 -66 12 -120 13 -122 5 -5 106 384 106 409 0 54 -33 148 -79 224 -134
222 -181 371 -181 578 0 103 17 72 25 -45 11 -181 65 -340 164 -493 29 -43 59
-105 68 -137 9 -32 20 -55 24 -51 4 4 18 51 29 103 30 134 24 252 -19 379 -47
140 -59 200 -72 366 -11 146 -10 154 15 278 15 71 33 145 41 164 27 64 7 47
-29 -25 -76 -151 -88 -223 -72 -437 4 -60 6 -108 2 -105 -10 11 -36 195 -36
260 0 85 21 164 74 275 43 91 109 175 139 175 12 0 7 -18 -25 -87 -104 -224
-115 -551 -27 -805 18 -51 40 -122 50 -158 l18 -65 -5 60 c-3 33 -24 134 -47
225 -39 156 -41 173 -41 308 0 93 5 147 12 154 9 9 11 -23 11 -128 -1 -141 6
-191 51 -364 12 -47 25 -98 29 -115 7 -29 8 -28 19 21 9 43 8 60 -8 111 -31
100 -44 246 -32 349 13 106 38 170 126 323 77 134 88 181 25 111 -114 -128
-149 -193 -164 -304 -4 -30 -10 -45 -16 -39 -13 13 5 131 29 185 19 43 90 134
179 228 23 24 50 59 60 77 19 36 33 43 33 17z m-539 -708 c-16 -91 -13 -236 5
-319 9 -40 36 -115 60 -168 64 -141 52 -163 -16 -29 -72 142 -97 298 -75 473
14 117 26 160 33 124 2 -10 -1 -47 -7 -81z m-197 -148 c-4 -7 -22 -33 -39 -58
-80 -112 -100 -187 -99 -370 1 -152 13 -203 84 -380 66 -166 81 -219 87 -310
3 -47 3 -83 0 -80 -3 3 -12 46 -21 95 -9 54 -38 148 -72 235 -88 229 -95 257
-101 415 -4 108 -1 156 11 209 9 38 14 71 11 74 -13 14 -49 -135 -60 -253 -7
-73 4 -144 44 -277 33 -115 4 -85 -35 34 -35 110 -36 116 -31 228 8 165 62
339 106 341 9 0 35 25 59 55 24 30 47 54 53 54 6 0 7 -6 3 -12z m-207 -185
c-7 -16 -31 -66 -54 -113 -23 -47 -54 -126 -70 -175 -26 -86 -28 -99 -27 -285
0 -276 29 -446 114 -670 55 -147 70 -200 70 -253 0 -84 -16 -87 -23 -5 -4 54
-18 107 -55 203 -64 169 -80 224 -107 375 l-22 125 -14 -60 c-15 -67 -19 -255
-5 -325 6 -33 5 -42 -3 -35 -29 29 -39 255 -15 385 l6 35 -28 -39 c-27 -39
-55 -106 -101 -246 -21 -62 -26 -101 -30 -227 -3 -94 -1 -176 6 -218 14 -79 8
-94 -15 -39 -26 61 -31 276 -9 389 25 136 98 319 158 400 13 16 17 17 31 6 9
-8 18 -12 19 -10 2 2 0 71 -5 153 -13 229 9 329 124 559 26 53 53 97 58 97 6
0 5 -11 -3 -27z m156 -440 c14 -39 43 -111 65 -160 50 -111 78 -233 53 -233
-5 0 -12 21 -16 48 -3 26 -28 94 -55 152 -26 58 -61 146 -76 195 -25 80 -28
104 -28 217 2 200 17 212 25 18 5 -142 10 -175 32 -237z m-247 -116 c0 -162 3
-194 28 -297 15 -63 43 -160 62 -215 109 -308 116 -334 122 -457 4 -96 2 -118
-9 -118 -11 0 -14 21 -15 93 -2 111 -26 208 -95 390 -61 162 -108 351 -118
477 -11 123 3 310 22 310 1 0 2 -82 3 -183z m-192 -495 c-8 -26 -19 -65 -26
-87 -6 -22 -12 -101 -12 -175 0 -173 19 -271 91 -460 31 -80 66 -174 78 -209
35 -97 46 -280 14 -230 -5 8 -9 37 -9 66 0 74 -17 145 -57 238 -110 257 -146
404 -146 595 1 114 4 134 33 222 18 54 36 95 41 93 4 -3 1 -27 -7 -53z m-214
-307 c9 -11 6 -30 -15 -95 -25 -76 -27 -91 -27 -268 0 -167 3 -198 25 -287 23
-91 26 -117 12 -103 -3 3 -17 45 -31 94 -22 75 -27 117 -31 259 -5 170 0 229
31 328 18 56 6 53 -28 -6 -86 -147 -116 -356 -81 -552 19 -103 18 -131 -2 -86
-21 50 -45 246 -38 313 16 149 61 289 121 371 37 51 45 55 64 32z m-200 -350
c0 -8 -11 -40 -25 -72 -58 -129 -70 -202 -70 -405 1 -104 -2 -188 -6 -188 -10
0 -24 160 -22 260 1 97 29 223 73 340 29 74 50 101 50 65z m-20 -227 c0 -7 -5
-33 -11 -57 -5 -24 -14 -96 -19 -160 -10 -139 4 -240 57 -404 19 -59 33 -113
31 -119 -6 -16 -77 178 -93 251 -24 117 -27 175 -15 291 13 133 28 210 41 210
5 0 9 -6 9 -12z m1358 -94 c76 -6 82 -8 82 -28 0 -16 -15 -31 -52 -54 -63 -37
-145 -58 -290 -71 -97 -9 -116 -15 -200 -56 -73 -36 -87 -40 -63 -20 17 14 62
41 100 60 61 30 85 36 190 45 132 12 201 30 251 64 l34 23 -134 18 c-142 20
-154 18 -280 -31 -42 -16 -2 19 48 42 54 26 71 27 314 8z m-6200 -4364 c27
-26 29 -94 6 -225 -19 -106 -14 -236 10 -282 38 -74 129 -97 205 -51 40 24
147 124 192 180 l29 36 -30 30 c-31 31 -34 44 -30 142 3 94 36 152 96 169 38
10 103 -1 116 -21 13 -19 2 -97 -21 -148 -25 -54 -27 -88 -6 -97 9 -3 42 2 74
11 31 9 75 16 97 16 97 0 115 -60 89 -301 -15 -139 -16 -173 -5 -198 25 -62
102 -27 200 90 59 71 84 121 98 199 16 87 50 167 100 233 58 75 124 128 222
175 69 33 82 36 165 36 75 1 100 -4 152 -26 61 -26 62 -26 68 -6 9 27 63 58
103 58 42 0 82 -38 82 -77 0 -15 -7 -73 -16 -128 -42 -271 -4 -395 120 -395
68 0 120 31 215 128 65 68 91 104 121 167 43 92 98 159 170 205 133 86 326 94
431 20 31 -23 36 -44 17 -84 -17 -39 -42 -41 -114 -7 -78 37 -127 39 -189 10
-58 -27 -110 -86 -149 -168 -28 -59 -31 -76 -31 -158 0 -101 11 -127 73 -169
64 -44 194 -39 351 13 97 31 316 138 401 195 59 39 69 52 103 123 67 138 219
261 366 295 69 16 153 7 230 -24 59 -24 60 -24 66 -4 9 27 63 58 103 58 22 0
41 -8 59 -26 24 -24 25 -29 19 -97 -4 -40 -12 -92 -17 -117 -6 -25 -11 -88
-11 -140 -2 -154 40 -220 142 -220 78 0 127 38 319 245 57 62 75 76 78 62 11
-42 -103 -235 -185 -315 -138 -134 -397 -164 -491 -57 -31 36 -61 116 -61 169
-1 30 -1 30 -16 11 -8 -11 -37 -55 -64 -97 -60 -95 -114 -149 -182 -185 -48
-25 -63 -28 -153 -28 -83 0 -107 4 -140 22 -76 40 -112 100 -117 192 -2 28 -4
51 -6 51 -1 0 -44 -32 -95 -70 -110 -84 -301 -181 -411 -210 -182 -46 -376
-12 -463 82 -30 31 -60 102 -68 160 l-7 48 -30 -38 c-133 -170 -407 -229 -528
-113 -39 37 -70 113 -70 175 -1 30 -1 30 -16 11 -8 -11 -36 -54 -63 -95 -99
-155 -183 -211 -321 -217 -109 -5 -178 21 -225 83 l-32 41 -19 -35 c-30 -57
-124 -146 -185 -176 -118 -57 -219 -43 -261 36 -20 38 -23 56 -22 153 1 61 8
152 16 203 19 120 16 125 -77 116 l-70 -6 -40 -71 c-46 -83 -152 -195 -211
-225 -152 -77 -348 -63 -411 31 -13 18 -31 65 -41 105 l-17 72 -45 -77 c-64
-111 -159 -204 -235 -232 -124 -47 -282 -14 -340 69 -50 72 -57 149 -26 272
29 114 64 174 150 258 104 103 225 160 335 160 43 0 131 -24 197 -54 12 -5 18
-1 23 19 13 50 113 73 154 35z"/>
<path d="M12065 9898 c-83 -106 -173 -177 -315 -248 -95 -47 -394 -250 -369
-250 4 0 38 13 77 30 38 16 90 34 115 40 26 5 85 28 133 50 48 23 88 39 91 37
5 -6 -128 -79 -172 -95 -16 -6 -50 -16 -75 -23 -49 -12 -213 -88 -245 -112
-13 -10 11 -5 65 13 47 16 130 43 185 60 285 91 438 214 523 416 20 47 40 135
31 134 -2 -1 -22 -24 -44 -52z"/>
<path d="M11889 9785 c-26 -13 -101 -40 -167 -60 -216 -63 -319 -122 -353
-203 -11 -25 -18 -46 -16 -48 2 -2 26 20 54 49 65 67 263 179 263 149 0 -5
-33 -26 -72 -47 -100 -52 -123 -68 -201 -144 -61 -58 -108 -121 -92 -121 9 0
65 30 65 35 0 2 -7 2 -16 -2 -69 -26 130 129 270 211 50 29 134 79 187 110 53
31 104 65 114 76 23 25 21 25 -36 -5z"/>
<path d="M11235 8232 c-33 -14 -82 -17 -265 -17 -203 0 -230 -2 -271 -20 -53
-23 -169 -97 -169 -107 0 -4 19 5 43 21 69 46 199 84 292 85 101 1 106 -15 5
-19 -107 -3 -225 -44 -328 -113 -45 -30 -81 -57 -79 -59 2 -2 34 11 70 27 72
34 207 59 317 60 81 0 175 22 240 55 55 28 86 33 55 9 -73 -57 -207 -94 -336
-94 -101 0 -212 -26 -306 -70 -93 -45 -111 -61 -30 -28 40 16 86 23 197 29 80
5 159 11 175 14 30 5 29 5 -5 -12 -24 -11 -77 -19 -172 -24 -144 -7 -209 -26
-268 -78 l-25 -22 30 6 c17 3 73 13 125 21 52 8 122 21 156 29 173 38 429 165
538 267 33 31 59 57 56 56 -3 0 -23 -8 -45 -16z"/>
<path d="M6265 7987 c-72 -35 -122 -89 -165 -179 -63 -130 -75 -264 -28 -308
57 -53 155 8 270 166 47 64 134 231 144 275 5 23 1 28 -34 42 -74 30 -131 31
-187 4z"/>
<path d="M10405 7727 c22 -13 61 -39 87 -59 26 -20 53 -38 60 -41 7 -2 10 -7
6 -11 -7 -8 -103 38 -113 54 -14 22 -86 50 -127 49 l-43 -1 35 -10 c52 -14 65
-23 68 -45 2 -14 25 -30 75 -54 86 -39 177 -50 223 -26 27 14 27 16 9 22 -48
17 -102 47 -130 71 -36 32 -96 59 -150 68 l-40 7 40 -24z"/>
<path d="M9930 7603 c-8 -3 -36 -19 -62 -35 -26 -16 -69 -33 -95 -36 l-48 -7
-3 -62 c-3 -65 9 -103 32 -103 24 0 192 142 225 190 17 25 31 49 31 53 0 8
-57 8 -80 0z"/>
<path d="M2768 5986 c1 -528 5 -967 7 -973 10 -28 36 -9 111 80 96 113 411
427 686 682 l204 190 -115 13 c-452 50 -759 357 -874 873 l-22 97 3 -962z"/>
<path d="M5095 4597 c-27 -13 -69 -45 -93 -71 -89 -96 -150 -285 -123 -375 45
-153 248 0 391 294 59 121 59 129 12 148 -74 29 -131 31 -187 4z"/>
<path d="M7108 4611 c-76 -25 -140 -86 -187 -179 -41 -82 -61 -156 -61 -229 0
-55 4 -68 25 -88 14 -15 36 -25 53 -25 41 0 115 53 171 121 82 102 190 300
191 350 0 33 -135 68 -192 50z"/>
<path d="M9458 4611 c-76 -25 -140 -86 -187 -179 -41 -82 -61 -156 -61 -229 0
-55 4 -68 25 -88 45 -46 99 -29 189 61 84 83 205 285 222 370 6 29 3 32 -36
48 -53 21 -117 28 -152 17z"/>
</g>
</svg>
