<?xml version="1.0" standalone="no"?>
<!DOCTYPE svg PUBLIC "-//W3C//DTD SVG 20010904//EN"
 "http://www.w3.org/TR/2001/REC-SVG-20010904/DTD/svg10.dtd">
<svg version="1.0" xmlns="http://www.w3.org/2000/svg"
 width="1500.000000pt" height="1500.000000pt" viewBox="0 0 1500.000000 1500.000000"
 preserveAspectRatio="xMidYMid meet">
<metadata>
Created by potrace 1.16, written by Peter Selinger 2001-2019
</metadata>
<g transform="translate(0.000000,1500.000000) scale(0.100000,-0.100000)"
fill="#000000" stroke="none">
<path d="M12008 12155 c-15 -22 -61 -78 -103 -125 -131 -145 -166 -211 -164
-313 l1 -52 14 69 c9 38 25 88 36 110 26 53 157 208 168 201 11 -7 -23 -84
-66 -152 -50 -78 -90 -162 -108 -225 -30 -103 -21 -312 20 -452 8 -29 11 -65
8 -90 -11 -71 -21 -74 -33 -10 -7 32 -23 100 -36 149 -34 127 -47 241 -40 353
5 76 4 93 -5 79 -8 -12 -12 -67 -11 -150 0 -133 13 -212 60 -382 25 -91 38
-211 22 -201 -6 4 -11 19 -11 33 0 15 -20 88 -45 163 -37 115 -47 162 -60 292
-16 151 -16 157 5 269 25 134 42 193 81 271 45 90 36 103 -28 39 -48 -49 -128
-207 -149 -298 -18 -76 -14 -190 11 -303 l14 -65 -7 80 c-13 149 -8 254 17
329 24 76 75 181 91 191 13 8 13 5 -6 -46 -8 -24 -21 -74 -29 -110 -32 -152
-36 -198 -25 -327 13 -158 22 -206 70 -357 57 -183 59 -220 14 -422 -9 -40
-20 -73 -24 -73 -5 0 -12 15 -16 32 -10 48 -33 94 -85 173 -48 74 -108 212
-133 308 -8 31 -18 107 -22 167 -4 61 -11 110 -17 110 -13 0 1 -219 19 -287
25 -98 73 -207 139 -317 67 -113 95 -187 95 -252 0 -43 -101 -425 -111 -419
-3 3 -9 53 -12 112 -7 134 -24 214 -97 474 -67 237 -86 326 -95 459 -12 168
24 370 95 527 34 74 34 90 0 43 -34 -48 -79 -173 -94 -263 -39 -227 -28 -405
44 -672 120 -450 130 -498 130 -655 0 -90 -15 -187 -31 -204 -5 -6 -9 12 -9
45 -1 90 -27 301 -45 354 -14 42 -47 117 -132 305 -10 20 -12 21 -12 6 -1 -10
23 -76 53 -145 29 -69 63 -151 74 -181 35 -96 59 -450 33 -498 -15 -28 -33
-19 -25 12 10 42 -32 376 -48 376 -6 0 -8 -10 -5 -22 3 -13 13 -90 22 -171 20
-188 10 -305 -37 -414 -17 -40 -33 -73 -37 -73 -3 0 -7 89 -9 198 -3 203 -17
324 -54 462 -23 88 -86 240 -99 240 -13 0 -12 -1 26 -93 77 -187 102 -336 108
-637 4 -181 2 -230 -9 -252 -8 -16 -17 -28 -19 -28 -3 0 -2 30 1 68 10 109
-12 242 -58 346 -22 50 -48 124 -59 166 l-19 75 5 -63 c3 -35 16 -91 31 -125
63 -152 77 -207 78 -322 1 -158 -4 -211 -20 -232 -14 -16 -14 -15 -9 15 4 18
2 32 -3 32 -6 0 -16 -33 -23 -72 -7 -40 -18 -84 -26 -98 -12 -22 -13 -3 -7
141 4 118 3 168 -5 173 -7 5 -11 -8 -11 -41 0 -26 -5 -118 -10 -203 -9 -151
-10 -156 -49 -235 -62 -125 -135 -248 -150 -253 -10 -3 -12 3 -9 29 12 79 -49
312 -126 481 -18 41 -37 89 -41 108 -13 61 -27 70 -21 15 2 -28 24 -94 49
-150 90 -203 135 -386 122 -498 -14 -126 -30 -117 -31 21 -2 123 -12 164 -104
417 -101 278 -115 347 -114 560 0 173 1 184 31 280 18 55 30 101 29 102 -7 7
-49 -94 -68 -164 -46 -170 -18 -467 68 -700 134 -364 151 -443 133 -593 l-12
-95 -109 -175 c-61 -97 -121 -189 -135 -205 -29 -35 -30 -45 8 125 18 85 23
136 23 265 l1 160 -58 165 c-62 176 -86 303 -88 464 l-2 81 -8 -65 c-6 -41 -5
-108 2 -180 9 -99 20 -142 76 -309 l66 -195 -6 -150 c-8 -220 -64 -444 -132
-534 -20 -26 -39 -46 -43 -44 -3 1 -5 42 -3 91 1 49 -3 125 -9 168 -13 88
-123 430 -128 397 -2 -12 16 -77 38 -145 23 -68 48 -149 56 -179 20 -78 29
-263 15 -334 -10 -54 -37 -114 -47 -104 -2 2 1 40 5 83 16 141 -2 250 -103
605 -41 142 -48 182 -53 285 -6 134 5 200 56 330 33 85 22 103 -14 22 -52
-118 -65 -182 -65 -316 0 -133 0 -133 71 -391 16 -58 41 -148 55 -200 44 -160
44 -410 1 -437 -7 -4 -8 19 -4 69 6 74 -1 146 -23 228 -19 69 -20 41 -3 -65
13 -81 14 -119 5 -203 -6 -58 -14 -108 -19 -113 -4 -4 -8 47 -8 114 l-1 122
-68 165 c-79 193 -97 264 -97 374 0 79 11 130 45 210 13 28 14 37 4 34 -18 -6
-59 -112 -68 -178 -16 -115 6 -223 90 -435 78 -197 74 -183 74 -300 -1 -116
-8 -165 -24 -165 -6 0 -10 44 -10 109 0 100 -4 124 -35 210 -3 8 -8 11 -11 9
-3 -3 2 -32 12 -64 13 -45 16 -84 12 -181 -6 -158 -23 -185 -43 -68 -4 22 -10
42 -15 45 -13 8 -96 181 -120 250 -14 41 -24 99 -27 155 -5 83 -2 98 32 203
20 63 34 117 30 120 -10 10 -23 -17 -55 -116 -24 -75 -30 -109 -30 -183 0
-120 19 -189 90 -335 33 -67 60 -126 60 -133 0 -21 -15 -11 -28 19 -16 35
-109 140 -124 140 -6 0 8 -20 30 -44 42 -46 106 -159 95 -170 -3 -3 -19 15
-34 39 -16 25 -53 69 -82 99 -29 30 -68 84 -86 120 -31 61 -33 70 -28 133 4
38 9 81 13 97 10 43 -13 24 -26 -22 -34 -124 3 -232 123 -354 39 -41 80 -89
91 -107 l18 -33 -23 13 c-42 22 -79 57 -154 148 -41 49 -87 98 -104 110 -44
32 -102 54 -113 43 -5 -5 8 -16 34 -26 57 -22 91 -53 182 -163 46 -56 94 -103
122 -119 26 -15 43 -29 37 -31 -6 -2 -43 15 -83 39 -50 30 -89 64 -127 111
-79 96 -163 157 -218 157 -30 0 -14 -19 24 -30 49 -13 101 -56 182 -149 34
-39 75 -79 91 -87 16 -9 28 -18 25 -20 -15 -15 -120 -22 -159 -11 l-43 13 -6
67 c-9 107 -56 135 -170 103 -71 -19 -105 -20 -112 -3 -3 7 8 51 24 98 15 46
28 92 29 102 0 31 -36 57 -82 57 -86 0 -124 -41 -136 -144 -11 -88 -1 -144 31
-172 l25 -21 -137 -81 c-268 -159 -413 -220 -547 -229 -97 -7 -141 6 -196 55
-61 55 -82 104 -82 193 -1 55 4 82 17 102 19 29 21 29 200 47 142 14 199 29
253 70 98 72 76 168 -47 204 -30 9 -90 16 -139 16 -151 0 -261 -42 -357 -138
-63 -62 -97 -126 -123 -230 -14 -57 -33 -96 -75 -159 -31 -45 -70 -94 -87
-108 -36 -31 -78 -32 -104 -4 -17 18 -19 37 -19 148 1 69 3 187 5 261 6 154
-5 190 -63 225 -51 31 -147 27 -219 -8 -68 -33 -155 -116 -218 -207 -65 -92
-75 -90 -84 12 -3 46 -9 93 -12 106 -9 32 -57 55 -97 46 -56 -11 -57 -14 -57
-172 l0 -145 -37 -46 c-21 -25 -63 -72 -95 -103 -132 -131 -244 -137 -305 -18
-28 54 -31 158 -8 295 23 138 20 179 -11 204 -32 25 -51 26 -104 5 -27 -11
-42 -24 -46 -40 -3 -13 -7 -24 -8 -24 -2 0 -29 11 -62 24 -32 13 -84 27 -115
31 -107 13 -245 -40 -353 -137 -74 -66 -111 -122 -148 -221 -16 -45 -48 -116
-71 -157 -106 -194 -324 -512 -466 -681 -160 -192 -404 -398 -623 -529 -105
-63 -446 -235 -453 -229 -2 2 43 46 98 98 56 52 131 122 167 155 190 180 698
654 783 731 99 91 114 118 81 146 -22 18 -102 16 -140 -4 -45 -23 -218 -179
-809 -726 l-530 -490 -100 -1 c-462 -1 -778 362 -845 970 -19 171 -15 490 9
670 106 806 360 1497 784 2135 126 190 231 319 387 476 263 265 491 417 730
485 236 68 340 -27 340 -311 0 -256 -105 -587 -386 -1221 -52 -117 -94 -216
-94 -221 0 -35 84 -60 133 -39 38 16 98 112 192 309 213 448 344 930 333 1229
-4 118 -7 131 -37 192 -95 194 -330 244 -654 141 -117 -37 -235 -96 -360 -179
-159 -106 -254 -186 -393 -327 -280 -287 -498 -607 -704 -1032 -247 -510 -393
-988 -472 -1547 -19 -129 -23 -201 -23 -427 0 -149 -4 -265 -8 -257 -25 44
-123 35 -148 -13 -12 -24 -14 -364 -17 -2278 -4 -2525 -1 -2652 52 -2687 21
-14 74 -8 97 11 21 17 23 29 30 157 4 76 10 546 13 1044 3 498 6 906 6 906 3
17 56 3 163 -42 280 -118 775 -262 1302 -379 66 -15 155 -40 197 -57 58 -23
86 -29 112 -24 61 12 58 69 -6 99 -18 8 -199 63 -403 122 -940 271 -1037 304
-1213 418 -93 60 -117 95 -117 172 0 183 255 487 955 1141 135 126 255 237
267 247 12 10 54 25 95 33 124 26 306 92 463 169 260 128 471 283 691 507 197
201 345 404 509 698 68 121 66 119 73 102 12 -36 68 -83 120 -102 45 -18 72
-21 132 -18 139 8 232 78 339 257 l49 80 12 -62 c24 -121 71 -177 167 -198 77
-16 181 -1 265 38 80 38 115 68 175 149 l48 66 5 -134 c3 -73 9 -141 14 -150
13 -27 71 -42 107 -28 34 14 48 39 85 142 82 234 177 421 256 502 31 32 62 56
69 54 24 -8 29 -70 16 -193 -15 -149 -15 -297 1 -351 38 -131 140 -184 254
-132 69 33 134 92 178 162 19 31 38 56 41 56 3 0 13 -18 23 -39 45 -105 167
-192 293 -211 219 -34 591 120 831 344 l77 72 72 3 c91 2 94 -2 77 -117 -35
-232 -28 -337 26 -391 l29 -28 -27 -21 c-26 -21 -27 -22 -8 -37 28 -22 40 -19
97 20 28 19 59 35 68 35 35 0 124 52 177 102 32 30 73 84 95 123 21 39 56 88
78 109 l40 39 19 -44 c11 -24 32 -77 47 -116 18 -49 36 -79 54 -93 38 -26 117
-43 166 -34 38 7 37 8 -41 19 -81 12 -127 33 -139 63 -4 9 -22 59 -40 110 -25
70 -30 92 -19 92 25 0 51 -36 73 -103 24 -71 55 -110 102 -126 41 -14 36 0 -8
24 -38 20 -44 31 -88 157 -10 28 -24 50 -36 53 -11 4 -16 11 -13 17 13 21 121
1 206 -39 76 -35 88 -38 174 -38 82 0 95 3 116 23 15 14 37 22 59 22 19 0 41
5 49 10 11 7 -1 10 -40 10 -94 0 -137 18 -242 99 -22 17 -57 32 -83 35 -81 13
-48 26 63 26 140 0 227 19 337 74 95 48 224 142 225 164 0 8 -17 0 -41 -20
-182 -148 -283 -188 -495 -194 -102 -3 -159 -9 -203 -23 -33 -10 -61 -16 -61
-12 0 4 12 19 28 33 31 30 136 58 300 83 196 28 502 169 639 293 70 64 205
221 200 235 -9 29 -36 31 -89 8 -29 -13 -72 -28 -95 -34 -24 -6 -43 -15 -43
-20 0 -15 64 -1 130 29 33 15 63 24 67 21 8 -9 -39 -75 -80 -113 -21 -21 -58
-38 -111 -54 -71 -20 -89 -22 -170 -14 -194 19 -328 5 -415 -42 -43 -24 -59
-25 -47 -6 7 12 125 60 191 78 28 8 76 14 108 14 31 0 57 5 57 10 0 23 -159 4
-242 -29 -41 -16 -34 -5 15 23 55 32 131 51 309 76 168 23 250 48 325 96 61
39 206 180 198 193 -3 5 -44 -30 -92 -77 -129 -127 -171 -145 -447 -193 -122
-21 -234 -41 -251 -44 l-30 -6 28 24 c15 13 64 41 107 62 90 44 107 65 28 34
-78 -30 -188 -105 -188 -127 0 -5 -7 -15 -15 -22 -12 -10 -15 -9 -15 4 0 27
98 116 175 162 101 59 180 88 363 133 203 49 329 107 408 186 51 51 144 183
144 204 0 25 -18 7 -63 -65 -110 -169 -220 -237 -501 -304 -170 -41 -291 -86
-379 -142 -26 -17 -49 -29 -52 -27 -2 2 29 56 70 119 l73 115 58 16 c83 21
156 57 251 122 79 54 185 97 239 97 13 0 24 5 24 11 0 7 -15 9 -42 4 -93 -14
-147 -36 -233 -97 -93 -64 -214 -122 -243 -116 -9 2 20 19 66 37 45 18 85 38
88 43 8 13 -23 3 -95 -28 -65 -29 -75 -30 -61 -4 6 11 17 20 26 20 22 0 86 34
219 118 158 100 220 122 350 122 72 0 96 3 88 11 -7 7 -48 11 -100 11 -134 -1
-213 -34 -428 -178 -60 -40 -125 -68 -125 -54 0 12 106 113 188 179 97 78 198
136 352 202 80 35 168 76 195 92 71 41 160 132 201 203 36 65 39 74 25 74 -5
0 -22 -26 -38 -57 -33 -68 -129 -168 -199 -207 -27 -15 -110 -53 -184 -83
-175 -71 -321 -161 -431 -265 -8 -7 -23 -20 -33 -28 -43 -33 18 51 74 103 72
66 119 99 208 149 40 22 71 42 69 45 -8 7 -137 -62 -207 -111 -35 -25 -66 -43
-68 -41 -11 10 27 51 91 99 80 60 192 118 268 137 45 12 67 29 36 29 -39 0
-201 -71 -289 -126 -31 -20 -38 -21 -38 -9 0 38 76 87 195 125 425 134 562
225 669 445 39 80 67 196 50 202 -8 3 0 41 23 111 45 144 37 165 -11 27 -43
-124 -61 -159 -113 -222 -23 -28 -39 -40 -43 -33 -5 8 -23 1 -56 -23 -49 -35
-110 -58 -304 -117 -60 -18 -128 -46 -157 -66 -35 -22 -53 -30 -53 -20 0 46
112 114 235 142 111 25 180 50 237 87 54 35 181 157 172 166 -3 3 -24 -15 -47
-39 -100 -104 -190 -152 -354 -190 -46 -11 -110 -33 -143 -50 -33 -17 -60 -27
-60 -24 0 8 49 65 119 138 65 68 108 99 217 156 211 112 303 191 355 305 29
64 51 162 39 170 -4 3 -13 -22 -19 -54 -24 -123 -108 -240 -224 -314 -29 -18
-97 -57 -152 -87 -126 -67 -188 -113 -254 -187 -49 -53 -52 -56 -46 -28 15 70
159 185 356 286 107 55 149 83 180 117 55 63 40 65 -25 4 -37 -35 -90 -69
-163 -105 -122 -60 -175 -92 -228 -138 -54 -48 -53 -28 2 33 55 61 134 128
248 212 236 174 319 284 359 479 33 157 12 232 -36 130 -13 -29 -62 -90 -122
-151 -54 -56 -96 -105 -92 -109 7 -7 174 164 209 214 12 18 25 33 28 33 4 0 4
-21 1 -47 -9 -79 -111 -179 -265 -260 -109 -56 -174 -110 -244 -200 -58 -74
-35 -59 60 39 80 83 105 102 194 147 65 34 124 73 167 112 36 34 66 56 66 50
0 -25 -35 -110 -65 -156 -48 -76 -115 -139 -280 -267 -156 -121 -222 -180
-268 -236 -15 -19 -27 -29 -27 -23 0 23 72 248 91 286 40 76 132 195 221 282
251 248 310 321 360 448 33 84 51 236 31 256 -7 7 -12 -20 -15 -78 -11 -189
-115 -357 -348 -564 -40 -35 -109 -109 -153 -164 -50 -63 -78 -90 -74 -75 19
81 62 221 79 253 32 63 97 126 200 193 54 35 117 82 142 104 51 47 112 137
101 148 -4 4 -10 1 -12 -6 -3 -7 -25 -39 -50 -72 -43 -58 -62 -73 -213 -173
-41 -27 -92 -66 -114 -86 l-38 -36 7 35 c4 19 11 44 15 55 18 48 105 148 180
208 44 36 97 85 116 108 44 53 84 131 83 161 0 17 -6 12 -21 -22 -40 -89 -80
-140 -169 -211 -49 -40 -110 -97 -134 -127 -25 -30 -45 -50 -45 -44 0 44 68
167 165 297 108 144 171 298 195 472 13 98 9 198 -10 217 -8 8 -9 -7 -4 -56
12 -123 -32 -331 -100 -468 -18 -36 -63 -105 -100 -155 -37 -49 -74 -102 -82
-117 -8 -16 -19 -28 -25 -28 -11 0 -9 15 31 212 26 126 33 146 83 230 125 209
173 382 149 535 -13 88 -31 157 -39 150 -2 -3 3 -51 13 -106 15 -88 16 -113 5
-192 -6 -51 -25 -126 -41 -168 -31 -79 -118 -236 -126 -228 -13 12 32 151 72
226 45 83 54 117 16 64 -38 -55 -81 -151 -101 -227 -33 -129 -44 -106 -15 32
10 51 35 115 74 192 67 131 99 240 71 240 -5 0 -12 -24 -16 -52 -5 -34 -27
-90 -62 -158 -64 -121 -78 -163 -93 -280 -6 -47 -14 -95 -17 -108 -4 -18 -2
-21 13 -15 13 5 16 3 12 -9 -4 -8 -9 -40 -13 -71 -4 -32 -11 -57 -15 -57 -11
0 -28 79 -39 180 -17 151 17 300 93 416 49 74 93 165 107 220 7 27 21 64 32
81 28 49 15 64 -15 18z m87 -2298 c-30 -92 -85 -179 -161 -254 -88 -87 -210
-151 -408 -213 -72 -23 -158 -52 -191 -66 l-60 -23 33 28 c35 30 198 103 272
122 45 11 204 88 197 96 -2 2 -38 -13 -80 -32 -41 -20 -102 -43 -136 -50 -33
-8 -104 -35 -157 -61 -53 -25 -98 -43 -101 -40 -8 7 18 40 88 113 67 70 140
122 227 162 29 14 52 28 52 32 0 28 -181 -75 -261 -149 -62 -57 -71 -56 -39 7
38 76 147 139 331 192 57 16 138 45 179 64 l75 35 -41 -38 c-23 -20 -93 -66
-155 -101 -183 -103 -407 -254 -417 -282 -7 -19 18 -7 65 29 82 65 254 177
348 227 151 81 238 149 311 246 33 43 40 47 42 30 2 -12 -4 -45 -13 -74z
m-815 -1616 c0 -23 -172 -144 -284 -200 -155 -77 -277 -118 -416 -137 -61 -8
-130 -22 -152 -30 -23 -8 -43 -12 -46 -9 -10 10 32 46 85 72 48 23 71 27 196
33 99 5 153 12 177 24 34 16 34 16 5 11 -16 -4 -95 -10 -175 -15 -112 -6 -156
-13 -194 -29 -82 -36 -64 -14 24 28 97 47 178 65 355 80 72 5 149 17 172 25
47 17 136 66 130 72 -2 2 -33 -9 -68 -25 -77 -34 -150 -51 -226 -51 -115 0
-264 -29 -337 -66 -37 -19 -66 -30 -64 -23 2 7 38 36 80 64 95 65 212 105 327
113 62 4 79 7 66 15 -48 27 -281 -30 -366 -88 -21 -16 -42 -25 -45 -22 -9 9
143 105 184 117 88 25 183 31 279 19 104 -13 194 -7 245 15 40 18 48 19 48 7z
m-4845 -252 c67 -25 67 -26 5 -156 -91 -192 -235 -353 -316 -353 -76 0 -103
81 -70 211 35 140 109 249 198 293 63 31 109 33 183 5z m4016 -255 c30 -9 72
-31 94 -49 45 -36 117 -75 140 -75 8 0 15 -4 15 -10 0 -21 -45 -32 -114 -28
-56 3 -85 11 -138 38 -46 23 -68 40 -68 52 0 22 -29 38 -69 38 -35 0 -42 15
-11 23 34 9 90 -12 158 -59 35 -24 74 -44 86 -44 18 1 17 3 -9 17 -16 8 -39
24 -50 34 -11 10 -45 32 -75 48 -62 35 -46 41 41 15z m-438 -120 c22 -22 -210
-253 -255 -254 -27 0 -38 32 -38 107 l0 68 48 0 c36 1 60 9 100 34 62 39 130
60 145 45z m-7182 -922 c57 -175 180 -378 287 -473 156 -138 342 -219 548
-239 59 -5 109 -11 110 -13 2 -2 -65 -66 -148 -142 -225 -207 -617 -594 -726
-718 -58 -66 -102 -107 -111 -105 -24 5 -29 166 -29 1123 l0 850 23 -108 c13
-60 34 -139 46 -175z"/>
<path d="M12150 11550 c0 -6 9 -37 20 -70 11 -33 23 -100 27 -149 5 -81 4 -93
-20 -145 -48 -105 -142 -210 -248 -278 -54 -35 -129 -109 -129 -128 0 -5 19
10 43 34 24 23 72 62 108 86 92 63 178 154 221 235 50 96 56 127 46 215 -9 82
-45 210 -59 210 -5 0 -9 -5 -9 -10z"/>
<path d="M11250 11276 c-23 -31 -48 -56 -55 -56 -55 0 -126 -266 -112 -419 5
-65 69 -267 75 -239 2 9 -9 56 -25 105 -46 145 -35 340 27 481 11 25 23 43 26
40 3 -4 1 -14 -5 -25 -20 -37 -41 -168 -41 -258 0 -135 23 -237 97 -429 41
-106 71 -203 80 -256 19 -116 24 -121 18 -19 -3 47 -13 110 -24 140 -36 106
-91 250 -105 278 -29 56 -49 200 -43 321 6 142 29 219 93 312 57 83 52 102 -6
24z"/>
<path d="M11032 11035 c-101 -206 -107 -233 -107 -480 1 -309 29 -466 132
-725 34 -87 47 -133 51 -189 4 -55 7 -69 15 -56 12 23 1 137 -19 184 -115 270
-164 513 -164 815 0 183 29 294 125 486 25 49 41 90 37 90 -5 0 -36 -56 -70
-125z"/>
<path d="M11206 11059 c-3 -17 -6 -87 -6 -155 0 -111 3 -134 31 -221 17 -54
49 -135 71 -181 22 -46 45 -110 51 -143 13 -68 33 -81 24 -14 -7 50 -27 106
-87 250 -65 158 -72 192 -71 353 0 78 -1 142 -3 142 -2 0 -6 -14 -10 -31z"/>
<path d="M10992 10743 c-4 -10 -7 -97 -7 -193 0 -156 3 -188 27 -290 15 -63
52 -184 82 -268 77 -215 95 -283 102 -399 4 -58 11 -103 17 -103 16 0 0 216
-21 290 -11 36 -45 136 -76 223 -30 86 -68 208 -83 270 -24 101 -27 131 -27
299 -1 104 -2 188 -4 188 -1 0 -6 -8 -10 -17z"/>
<path d="M10883 10362 c-35 -22 -128 -236 -158 -362 -34 -145 -28 -402 12
-455 12 -16 14 -16 9 -2 -13 40 -27 247 -21 317 7 88 34 193 76 305 33 87 75
165 88 165 5 0 2 -30 -6 -67 -21 -98 -7 -343 19 -343 6 0 7 9 3 23 -17 52 -17
243 0 320 15 66 15 78 3 91 -8 8 -19 11 -25 8z"/>
<path d="M10785 10055 c-26 -69 -30 -96 -33 -204 -6 -208 24 -341 143 -629 38
-91 48 -131 55 -204 12 -124 24 -126 17 -2 -4 79 -11 115 -32 165 -132 315
-171 476 -162 679 3 83 11 132 26 175 12 33 20 69 19 80 -2 12 -15 -13 -33
-60z"/>
<path d="M10545 9755 c-72 -95 -125 -276 -125 -429 0 -97 23 -257 41 -285 8
-12 9 -9 5 14 -23 146 -28 211 -23 314 4 100 10 129 40 214 32 88 82 176 93
164 3 -2 -2 -24 -10 -48 -53 -157 -46 -449 15 -636 6 -18 14 -33 18 -33 4 0
-4 42 -18 93 -22 83 -24 112 -25 287 0 187 1 198 27 274 21 60 24 82 16 92
-17 20 -24 18 -54 -21z"/>
<path d="M11460 9111 c-41 -13 -90 -41 -90 -51 0 -5 21 0 48 11 70 30 127 33
257 14 117 -18 118 -18 94 -36 -46 -36 -126 -58 -246 -68 -155 -14 -188 -24
-286 -89 -58 -38 -36 -38 35 1 87 48 115 55 249 66 66 6 140 18 172 29 67 24
127 67 127 92 0 15 -12 19 -82 24 -183 13 -254 15 -278 7z"/>
<path d="M5431 4742 c-28 -14 -47 -33 -57 -60 -1 -1 -22 7 -48 18 -124 53
-227 48 -358 -17 -93 -47 -204 -155 -242 -236 -41 -88 -69 -211 -63 -273 14
-140 120 -221 275 -212 137 8 239 84 340 254 28 48 52 85 52 83 0 -26 25 -130
37 -154 43 -85 125 -122 245 -111 172 16 284 96 399 286 l39 66 68 2 c94 4 96
0 77 -129 -23 -154 -24 -274 -2 -331 34 -89 142 -111 256 -53 80 41 128 82
172 149 l42 65 28 -38 c44 -61 106 -86 214 -86 78 0 97 4 146 28 71 34 140
108 209 221 l54 88 12 -65 c24 -126 66 -175 172 -199 130 -29 287 26 390 136
l60 64 11 -56 c24 -120 78 -184 188 -224 209 -75 507 11 773 222 l75 60 6 -63
c14 -151 116 -228 285 -214 128 10 222 82 325 251 l54 89 8 -54 c11 -82 54
-160 102 -186 53 -30 133 -38 215 -24 138 25 234 95 331 243 51 79 95 175 85
186 -8 8 -51 -32 -142 -133 -117 -130 -187 -179 -253 -179 -60 0 -94 21 -123
77 -28 54 -29 172 -4 343 20 136 17 153 -35 174 -42 18 -108 -3 -126 -40 -15
-30 -14 -30 -83 -3 -115 44 -207 39 -323 -17 -115 -55 -209 -150 -270 -272
-27 -54 -42 -70 -102 -110 -214 -144 -519 -252 -666 -235 -127 15 -186 117
-155 267 35 164 143 279 263 280 24 0 67 -11 100 -25 71 -32 103 -30 121 8 19
40 8 60 -51 93 -48 27 -60 29 -157 29 -97 0 -110 -2 -172 -32 -38 -18 -84 -45
-105 -60 -50 -38 -117 -131 -139 -194 -15 -41 -40 -74 -114 -150 -107 -109
-144 -132 -211 -133 -58 0 -92 22 -121 77 -28 54 -29 172 -4 344 17 113 17
125 2 147 -33 51 -144 38 -166 -20 -8 -19 -15 -24 -28 -19 -104 44 -121 48
-192 48 -119 0 -236 -53 -339 -154 -88 -87 -126 -162 -156 -304 -19 -92 -63
-163 -155 -249 -55 -50 -66 -57 -98 -54 -55 5 -59 27 -40 226 22 221 13 274
-52 293 -31 10 -52 8 -114 -6 -115 -27 -123 -18 -81 100 31 88 32 119 3 139
-29 20 -90 20 -128 1 -46 -24 -63 -68 -68 -172 l-4 -92 31 -32 c30 -30 31 -33
16 -55 -8 -13 -49 -57 -90 -99 -72 -73 -154 -125 -199 -125 -41 0 -104 40
-122 78 -26 52 -30 178 -10 302 24 148 22 184 -10 209 -33 26 -58 26 -103 3z
m-148 -148 c20 -10 37 -24 37 -32 0 -24 -84 -195 -130 -263 -49 -74 -143 -174
-182 -195 -37 -19 -81 -18 -108 4 -66 53 -11 295 94 419 20 23 60 53 89 68 43
22 61 26 107 22 30 -3 72 -13 93 -23z m1980 2 c48 -20 48 -39 -3 -145 -130
-269 -301 -423 -379 -340 -60 64 -5 297 97 410 62 69 130 102 198 95 27 -2 67
-11 87 -20z m2354 -1 l41 -16 -10 -37 c-30 -107 -160 -316 -245 -391 -57 -51
-101 -69 -146 -57 -70 17 -63 198 14 349 31 60 98 127 154 154 57 27 120 27
192 -2z"/>
</g>
</svg>
